<svg xmlns="http://www.w3.org/2000/svg" viewBox="0 0 100 100" width="180" height="180">
  <rect width="100" height="100" fill="#F4F1EA"/>
  <g transform="translate(15 5) scale(0.7 0.7)">
    <path d="M50 4 C25 4 8 22 8 48 C8 78 50 126 50 126 C50 126 92 78 92 48 C92 22 75 4 50 4 Z" fill="#FC5200"/>
    <g transform="translate(50 50) rotate(-90)">
      <path d="M-22 -16 L-12 -16 L-2 0 L-12 16 L-22 16 L-12 0 Z" fill="#ffffff" opacity="0.4"/>
      <path d="M-8 -16 L2 -16 L12 0 L2 16 L-8 16 L2 0 Z" fill="#ffffff" opacity="0.7"/>
      <path d="M6 -16 L16 -16 L26 0 L16 16 L6 16 L16 0 Z" fill="#ffffff"/>
    </g>
  </g>
</svg>
